# xmcd CD database file
#
# Track frame offsets:
#	150
#	14698
#	25746
#	34528
#	46196
#	57960
#	68306
#	79450
#	94031
#	105272
#	119301
#	135618
#	151638
#	163689
#	181830
#	194034
#	206711
#	218536
#	230953
#	246312
#	260087
#	277982
#
# Disc length: 3885 seconds
#
# Revision: 2
# Processed by: cddbd v1.5.2PL0 Copyright (c) Steve Scherf et al.
# Submitted via: CDex 1.70beta2
#
DISCID=2d0f2b16
DTITLE=Various Artist - Something Swingin' 3.2
DYEAR=2004
DGENRE=Jazz
TTITLE0=Andy Williams - Can't Help Falling In Love
TTITLE1=Bobby Vee - Take A Good Care Of My Baby
TTITLE2=Shirley Bassey - Kiss Me Honey Kiss Me
TTITLE3=Dusty Springfield - I Only Want To Be With You
TTITLE4=Bobby Vinton - Roses Are Red (My Love)
TTITLE5=Dinah Washington - Call Me Irresponsible
TTITLE6=Peggy Lee - Till There Was You
TTITLE7=Perry Como - It's Impossible
TTITLE8=Esther Philips - I'm Sorry
TTITLE9=Jimmy Durante - Way Of Life
TTITLE10=Tony Bennett - The Shadow Of Your Smile
TTITLE11=Johnny Mathis - Misty
TTITLE12=Doris Day - It Had To Be You
TTITLE13=Louis Armstrong - When You're Smiling
TTITLE14=Dean Martin - Return To Me
TTITLE15=Booker T. and The Mg's - More
TTITLE16=Sandie Shaw - (There's) Always Something There to Remind Me
TTITLE17=Petula Clark - My Love
TTITLE18=Tony Christie - Release Me
TTITLE19=Tony Bennett - Stranger In Paradise
TTITLE20=Ella Fitzgerald and Louis Armstrong - Love Is Here To Stay
TTITLE21=Marlene Dietrich - Falling In Love Again
EXTD=YEAR: 2004
EXTT0=
EXTT1=
EXTT2=
EXTT3=
EXTT4=
EXTT5=
EXTT6=
EXTT7=
EXTT8=
EXTT9=
EXTT10=
EXTT11=
EXTT12=
EXTT13=
EXTT14=
EXTT15=
EXTT16=
EXTT17=
EXTT18=
EXTT19=
EXTT20=
EXTT21=
PLAYORDER=
